<?xml version="1.0" encoding="iso-8859-1"?>
<!-- Generator: Adobe Illustrator 19.0.0, SVG Export Plug-In . SVG Version: 6.00 Build 0)  -->
<svg version="1.1" id="Layer_1" xmlns="http://www.w3.org/2000/svg" xmlns:xlink="http://www.w3.org/1999/xlink" x="0px" y="0px"
	 viewBox="0 0 512.205 512.205" style="enable-background:new 0 0 512.205 512.205;" xml:space="preserve">
<g>
	<g>
		<g>
			<path d="M392.636,145.067c4.713,0,8.533-3.82,8.533-8.533V128c0-4.713-3.821-8.533-8.533-8.533c-4.713,0-8.533,3.82-8.533,8.533
				v8.533C384.102,141.246,387.923,145.067,392.636,145.067z"/>
			<path d="M384.102,179.2c0,4.713,3.821,8.533,8.533,8.533c4.713,0,8.533-3.82,8.533-8.533v-8.533c0-4.713-3.821-8.533-8.533-8.533
				c-4.713,0-8.533,3.82-8.533,8.533V179.2z"/>
			<path d="M384.102,221.867c0,4.713,3.821,8.533,8.533,8.533c4.713,0,8.533-3.82,8.533-8.533v-8.533
				c0-4.713-3.821-8.533-8.533-8.533c-4.713,0-8.533,3.821-8.533,8.533V221.867z"/>
			<path d="M358.502,145.067c4.713,0,8.533-3.82,8.533-8.533V128c0-4.713-3.82-8.533-8.533-8.533s-8.533,3.82-8.533,8.533v8.533
				C349.969,141.246,353.789,145.067,358.502,145.067z"/>
			<path d="M358.502,187.733c4.713,0,8.533-3.82,8.533-8.533v-8.533c0-4.713-3.82-8.533-8.533-8.533s-8.533,3.82-8.533,8.533v8.533
				C349.969,183.913,353.789,187.733,358.502,187.733z"/>
			<path d="M358.502,230.4c4.713,0,8.533-3.82,8.533-8.533v-8.533c0-4.713-3.82-8.533-8.533-8.533s-8.533,3.821-8.533,8.533v8.533
				C349.969,226.58,353.789,230.4,358.502,230.4z"/>
			<path d="M426.769,145.067c4.713,0,8.533-3.82,8.533-8.533V128c0-4.713-3.82-8.533-8.533-8.533s-8.533,3.82-8.533,8.533v8.533
				C418.236,141.246,422.056,145.067,426.769,145.067z"/>
			<path d="M418.236,179.2c0,4.713,3.82,8.533,8.533,8.533s8.533-3.82,8.533-8.533v-8.533c0-4.713-3.82-8.533-8.533-8.533
				s-8.533,3.82-8.533,8.533V179.2z"/>
			<path d="M418.236,221.867c0,4.713,3.82,8.533,8.533,8.533s8.533-3.82,8.533-8.533v-8.533c0-4.713-3.82-8.533-8.533-8.533
				s-8.533,3.821-8.533,8.533V221.867z"/>
			<path d="M500.582,256h-14.08V68.267C486.502,30.564,455.938,0,418.236,0h-25.6c-4.713,0-8.533,3.82-8.533,8.533v43.52
				c-19.868,4.056-34.137,21.535-34.133,41.813c0,4.713,3.82,8.533,8.533,8.533h68.267c4.713,0,8.533-3.82,8.533-8.533
				c0.004-20.278-14.265-37.758-34.133-41.813V17.067h17.067c28.277,0,51.2,22.923,51.2,51.2V256H11.622
				c-6.362,0-11.52,5.158-11.52,11.52v11.093c0,6.362,5.158,11.52,11.52,11.52h488.96c6.362,0,11.52-5.158,11.52-11.52V267.52
				C512.102,261.158,506.945,256,500.582,256z"/>
			<path d="M481.809,307.2H30.396c-2.404-0.002-4.354,1.945-4.355,4.349c0,0.058,0.001,0.116,0.003,0.174
				C29.372,372.48,55.74,435.371,94.31,454.741c-12.885,13.761-12.174,35.361,1.586,48.246
				c13.761,12.885,35.361,12.174,48.246-1.586c10.335-11.037,12.176-27.559,4.525-40.601h214.613
				c-4.994,8.335-6.086,18.439-2.987,27.648c6.012,17.867,25.37,27.477,43.237,21.464c17.867-6.012,27.477-25.37,21.464-43.237
				c-1.547-4.596-4.055-8.81-7.357-12.361c38.827-19.371,65.195-82.261,68.267-143.019
				C485.779,309.088,484.017,307.326,481.809,307.2z"/>
		</g>
	</g>
</g>

</svg>
