<?xml version="1.0" encoding="iso-8859-1"?>
<!-- Generator: Adobe Illustrator 19.0.0, SVG Export Plug-In . SVG Version: 6.00 Build 0)  -->
<svg version="1.1" id="Layer_1" xmlns="http://www.w3.org/2000/svg" xmlns:xlink="http://www.w3.org/1999/xlink" x="0px" y="0px"
	 viewBox="0 0 512 512" style="enable-background:new 0 0 512 512;" xml:space="preserve">
<g>
	<g>
		<g>
			<path d="M396.757,256h-128c-2.356,0-4.267,1.91-4.267,4.267v196.267c0,2.356,1.91,4.267,4.267,4.267h128
				c2.356,0,4.267-1.91,4.267-4.267V260.267C401.024,257.91,399.114,256,396.757,256z M298.624,324.267
				c0,4.713-3.82,8.533-8.533,8.533s-8.533-3.82-8.533-8.533V281.6c0-4.713,3.82-8.533,8.533-8.533s8.533,3.821,8.533,8.533V324.267
				z"/>
			<path d="M396.757,477.867h-281.6c-2.356,0-4.267,1.91-4.267,4.267v21.333c0,4.713,3.82,8.533,8.533,8.533H392.49
				c4.713,0,8.533-3.82,8.533-8.533v-21.333C401.024,479.777,399.114,477.867,396.757,477.867z"/>
			<path d="M396.732,182.383c-0.74,0.004-1.467,0.201-2.108,0.572c-42.048,24.819-89.846,38.232-138.667,38.912
				c-48.821-0.681-96.619-14.093-138.667-38.912c-2.041-1.178-4.65-0.479-5.828,1.562c-0.37,0.641-0.567,1.367-0.572,2.108v48.043
				c0,2.356,1.91,4.267,4.267,4.267h281.6c2.356,0,4.267-1.91,4.267-4.267v-48.043C401.01,184.268,399.088,182.369,396.732,182.383z
				"/>
			<path d="M115.157,460.8h128c2.356,0,4.267-1.91,4.267-4.267V260.267c0-2.356-1.91-4.267-4.267-4.267h-128
				c-2.356,0-4.267,1.91-4.267,4.267v196.267C110.89,458.89,112.801,460.8,115.157,460.8z M213.29,281.6
				c0-4.713,3.82-8.533,8.533-8.533s8.533,3.821,8.533,8.533v42.667c0,4.713-3.82,8.533-8.533,8.533s-8.533-3.82-8.533-8.533V281.6z
				"/>
			<path d="M398.72,145.067H113.194c-2.356-0.028-4.289,1.86-4.316,4.217c-0.012,1.015,0.339,2.001,0.988,2.781
				c25.941,31.488,80.896,52.736,146.091,52.736c65.195,0,120.149-21.248,146.091-52.736c1.508-1.81,1.263-4.501-0.547-6.009
				C400.721,145.405,399.735,145.055,398.72,145.067z"/>
			<path d="M409.756,102.427c-0.265-0.021-0.53-0.03-0.796-0.027H281.557V76.8c4.713,0,8.533-3.82,8.533-8.533
				c0-22.955-9.472-37.803-25.6-41.643V8.533C264.49,3.82,260.67,0,255.957,0c-4.713,0-8.533,3.82-8.533,8.533v18.091
				c-16.128,3.84-25.6,18.688-25.6,41.643c0,4.713,3.82,8.533,8.533,8.533v25.6H102.954c-4.713-0.015-8.546,3.793-8.561,8.506
				c-0.001,0.237,0.008,0.474,0.027,0.71c0,2.901,0.512,6.059,0.853,8.533c0.521,4.309,4.193,7.541,8.533,7.509h304.384
				c4.34,0.031,8.013-3.2,8.533-7.509c0-2.816,0.597-5.973,0.853-8.533C417.956,106.918,414.454,102.804,409.756,102.427z
				 M264.49,102.4h-17.067V76.8h17.067V102.4z M239.488,59.733c2.56-17.067,12.8-17.067,16.469-17.067
				c3.669,0,13.995,0,16.469,17.067H239.488z"/>
		</g>
	</g>
</g>
<g>
</g>
<g>
</g>
<g>
</g>
<g>
</g>
<g>
</g>
<g>
</g>
<g>
</g>
<g>
</g>
<g>
</g>
<g>
</g>
<g>
</g>
<g>
</g>
<g>
</g>
<g>
</g>
<g>
</g>
</svg>
