<?xml version="1.0" encoding="utf-8"?>
<!-- Generator: Adobe Illustrator 22.0.1, SVG Export Plug-In . SVG Version: 6.00 Build 0)  -->
<svg version="1.1" id="Layer_1" xmlns="http://www.w3.org/2000/svg" xmlns:xlink="http://www.w3.org/1999/xlink" x="0px" y="0px"
	 viewBox="0 0 512 512" style="enable-background:new 0 0 512 512;" xml:space="preserve">
<g>
	<g>
		<path d="M250,8H20.1c-3.3,0-6,2.7-6,6V250c0,3.3,2.7,6,6,6H250c3.3,0,6-2.7,6-6V14C256,10.7,253.3,8,250,8z M231.8,225.8
			c0,3.3-2.7,6-6,6H44.3c-3.3,0-6-2.7-6-6V38.2c0-3.3,2.7-6,6-6h181.5c3.3,0,6,2.7,6,6V225.8z"/>
		<path d="M50.3,219.7h169.4V44.3H50.3V219.7z M175.6,127.2l-42.3,42.3c-2.5,2.2-6.4,1.9-8.5-0.7c-1.9-2.3-1.9-5.6,0-7.9l42.3-42.3
			c2.5-2.2,6.4-1.9,8.5,0.7C177.6,121.6,177.6,125,175.6,127.2z M70.2,106.5l42.3-42.3c2.5-2.2,6.4-1.9,8.5,0.7
			c1.9,2.3,1.9,5.6,0,7.9l-42.3,42.3c-2.5,2.2-6.4,1.9-8.5-0.7C68.3,112.1,68.3,108.8,70.2,106.5z M70.2,161L167,64.2
			c2.5-2.2,6.4-1.9,8.5,0.7c1.9,2.3,1.9,5.6,0,7.9l-96.8,96.8c-2.5,2.2-6.4,1.9-8.5-0.7C68.3,166.6,68.3,163.2,70.2,161z"/>
	</g>
	<g>
		<path d="M491.9,8H262c-3.3,0-6,2.7-6,6V250c0,3.3,2.7,6,6,6h229.9c3.3,0,6-2.7,6-6V14C498,10.7,495.2,8,491.9,8z M473.8,225.8
			c0,3.3-2.7,6-6,6H286.2c-3.3,0-6-2.7-6-6V38.2c0-3.3,2.7-6,6-6h181.5c3.3,0,6,2.7,6,6V225.8z"/>
		<path d="M292.3,219.7h169.4V44.3H292.3V219.7z M417.6,127.2l-42.3,42.3c-2.5,2.2-6.4,1.9-8.5-0.7c-1.9-2.3-1.9-5.6,0-7.9
			l42.3-42.3c2.5-2.2,6.4-1.9,8.5,0.7C419.5,121.6,419.5,125,417.6,127.2z M312.2,106.5l42.3-42.3c2.5-2.2,6.4-1.9,8.5,0.7
			c1.9,2.3,1.9,5.6,0,7.9l-42.3,42.3c-2.5,2.2-6.4,1.9-8.5-0.7C310.3,112.1,310.3,108.8,312.2,106.5z M312.2,161L409,64.2
			c2.5-2.2,6.4-1.9,8.5,0.7c1.9,2.3,1.9,5.6,0,7.9l-96.8,96.8c-2.5,2.2-6.4,1.9-8.5-0.7C310.3,166.6,310.3,163.2,312.2,161z"/>
	</g>
	<g>
		<path d="M491.9,256H262c-3.3,0-6,2.7-6,6V498c0,3.3,2.7,6,6,6h229.9c3.3,0,6-2.7,6-6V262C498,258.7,495.2,256,491.9,256z
			 M473.8,473.8c0,3.3-2.7,6-6,6H286.2c-3.3,0-6-2.7-6-6V286.2c0-3.3,2.7-6,6-6h181.5c3.3,0,6,2.7,6,6V473.8z"/>
		<path d="M292.3,467.7h169.4V292.3H292.3V467.7z M417.6,375.2l-42.3,42.3c-2.5,2.2-6.4,1.9-8.5-0.7c-1.9-2.3-1.9-5.6,0-7.9
			l42.3-42.3c2.5-2.2,6.4-1.9,8.5,0.7C419.5,369.6,419.5,373,417.6,375.2z M312.2,354.5l42.3-42.3c2.5-2.2,6.4-1.9,8.5,0.7
			c1.9,2.3,1.9,5.6,0,7.9l-42.3,42.3c-2.5,2.2-6.4,1.9-8.5-0.7C310.3,360.1,310.3,356.8,312.2,354.5z M312.2,409l96.8-96.8
			c2.5-2.2,6.4-1.9,8.5,0.7c1.9,2.3,1.9,5.6,0,7.9l-96.8,96.8c-2.5,2.2-6.4,1.9-8.5-0.7C310.3,414.6,310.3,411.2,312.2,409z"/>
	</g>
	<g>
		<path d="M250,256H20.1c-3.3,0-6,2.7-6,6V498c0,3.3,2.7,6,6,6H250c3.3,0,6-2.7,6-6V262C256,258.7,253.3,256,250,256z M231.8,473.8
			c0,3.3-2.7,6-6,6H44.3c-3.3,0-6-2.7-6-6V286.2c0-3.3,2.7-6,6-6h181.5c3.3,0,6,2.7,6,6V473.8z"/>
		<path d="M50.3,467.7h169.4V292.3H50.3V467.7z M175.6,375.2l-42.3,42.3c-2.5,2.2-6.4,1.9-8.5-0.7c-1.9-2.3-1.9-5.6,0-7.9l42.3-42.3
			c2.5-2.2,6.4-1.9,8.5,0.7C177.6,369.6,177.6,373,175.6,375.2z M70.2,354.5l42.3-42.3c2.5-2.2,6.4-1.9,8.5,0.7
			c1.9,2.3,1.9,5.6,0,7.9l-42.3,42.3c-2.5,2.2-6.4,1.9-8.5-0.7C68.3,360.1,68.3,356.8,70.2,354.5z M70.2,409l96.8-96.8
			c2.5-2.2,6.4-1.9,8.5,0.7c1.9,2.3,1.9,5.6,0,7.9l-96.8,96.8c-2.5,2.2-6.4,1.9-8.5-0.7C68.3,414.6,68.3,411.2,70.2,409z"/>
	</g>
</g>
</svg>
