<?xml version="1.0" encoding="utf-8"?>
<!-- Generator: Adobe Illustrator 22.0.1, SVG Export Plug-In . SVG Version: 6.00 Build 0)  -->
<svg version="1.1" id="Layer_1" xmlns="http://www.w3.org/2000/svg" xmlns:xlink="http://www.w3.org/1999/xlink" x="0px" y="0px"
	 viewBox="0 0 512 512" style="enable-background:new 0 0 512 512;" xml:space="preserve">
<path d="M104.7,32.9c0.8,0.8,1.9,1.3,3,1.3h177.2c1.1,0,2.2-0.5,3-1.3l25.6-25.6c1.6-1.7,1.6-4.4-0.1-6c-0.8-0.8-1.8-1.2-2.9-1.2
	H82.1c-2.4,0-4.2,2-4.2,4.3c0,1.1,0.5,2.1,1.2,2.9L104.7,32.9z"/>
<path d="M115.2,51.2c-2.4,0-4.3,1.9-4.3,4.3v366.9c0,2.4,1.9,4.3,4.3,4.3h162.1c2.4,0,4.3-1.9,4.3-4.3V55.5c0-2.4-1.9-4.3-4.3-4.3
	H115.2z M145.1,187.7V76.8c0-4.7,3.8-8.5,8.5-8.5h85.3c4.7,0,8.5,3.8,8.5,8.5v110.9c0,4.7-3.8,8.5-8.5,8.5h-85.3
	C148.9,196.3,145.1,192.4,145.1,187.7z M264.5,281.6c0,4.7-3.8,8.5-8.5,8.5s-8.5-3.8-8.5-8.5v-8.5h-25.6c-4.7,0-8.5-3.8-8.5-8.5
	s3.8-8.5,8.5-8.5h25.6v-8.5c0-4.7,3.8-8.5,8.5-8.5c4.7,0,8.5,3.8,8.5,8.5V281.6z"/>
<path d="M162.1,179.2h68.3V85.3h-68.3V179.2z M187.7,119.5h8.5c-4.7,0-8.6-3.8-8.6-8.5c0-2.3,0.9-4.5,2.5-6.1c2-2,4.9-2.9,7.7-2.3
	c0.6,0.1,1.1,0.3,1.6,0.5s1,0.4,1.5,0.8c0.5,0.3,0.9,0.6,1.3,1c0.8,0.8,1.5,1.8,1.9,2.8s0.7,2.1,0.7,3.2c0,2.3-0.9,4.5-2.6,6.1
	c-0.4,0.4-0.8,0.8-1.3,1c-0.4,0.3-0.9,0.6-1.5,0.8c-0.5,0.3-1.1,0.4-1.6,0.5l-1.6,0.2h8.5c4.7,0,8.5,3.8,8.5,8.5s-3.8,8.5-8.5,8.5
	v17.1c0,4.7-3.8,8.5-8.5,8.5s-8.5-3.8-8.5-8.5v-17.1c-4.7,0-8.5-3.8-8.5-8.5S183,119.5,187.7,119.5z"/>
<g>
	<path d="M332.8,494.3v-472c0-2.4-2-4.2-4.3-4.2c-1.1,0-2.1,0.5-2.9,1.2L299.9,45c-0.8,0.8-1.3,1.9-1.3,3v446.4h34.2V494.3z"/>
	<path d="M281.6,494.3V448c0-2.4-1.9-4.3-4.3-4.3H115.2c-2.4,0-4.3,1.9-4.3,4.3v46.3H281.6z"/>
	<path d="M93.9,494.3V48c0-1.1-0.5-2.2-1.3-3L67,19.4c-1.7-1.7-4.4-1.6-6,0.1c-0.8,0.8-1.2,1.8-1.2,2.9v472h34.1V494.3z"/>
</g>
<path d="M350.3,511H37.8c-4.4,0-8-3.6-8-8v-1.6c0-4.4,3.6-8,8-8h312.5c4.4,0,8,3.6,8,8v1.6C358.3,507.4,354.7,511,350.3,511z"/>
</svg>
